<mxfile host="app.diagrams.net" modified="2022-08-18T07:45:05.567Z" agent="5.0 (Windows NT 10.0; Win64; x64) AppleWebKit/537.36 (KHTML, like Gecko) Chrome/104.0.0.0 Safari/537.36" etag="s9y-nINbfgrRa0JYGJqB" version="20.2.4" type="github">
  <diagram name="Page-1" id="efa7a0a1-bf9b-a30e-e6df-94a7791c09e9">
    <mxGraphModel dx="211" dy="547" grid="1" gridSize="10" guides="1" tooltips="1" connect="1" arrows="1" fold="1" page="1" pageScale="1" pageWidth="826" pageHeight="1169" background="none" math="0" shadow="0">
      <root>
        <mxCell id="0" />
        <mxCell id="1" parent="0" />
        <mxCell id="wNGtBNmK4PjKfD_GCCp5-115" value="" style="edgeStyle=orthogonalEdgeStyle;rounded=0;orthogonalLoop=1;jettySize=auto;html=1;exitX=0;exitY=0.389;exitDx=0;exitDy=0;exitPerimeter=0;entryX=1;entryY=0.25;entryDx=0;entryDy=0;" edge="1" parent="1" source="wNGtBNmK4PjKfD_GCCp5-114" target="22">
          <mxGeometry relative="1" as="geometry">
            <mxPoint x="1060" y="460" as="targetPoint" />
          </mxGeometry>
        </mxCell>
        <mxCell id="22" value="&lt;p style=&quot;margin: 0px; margin-top: 4px; text-align: center; text-decoration: underline;&quot;&gt;&lt;b&gt;Customer&lt;/b&gt;&lt;/p&gt;&lt;hr&gt;&lt;p style=&quot;margin: 0px; margin-left: 8px;&quot;&gt;CustomerId&amp;nbsp; :&amp;nbsp; int&lt;/p&gt;&lt;p style=&quot;margin: 0px; margin-left: 8px;&quot;&gt;FirstName&amp;nbsp; :&amp;nbsp; &amp;nbsp;string&lt;/p&gt;&lt;p style=&quot;margin: 0px; margin-left: 8px;&quot;&gt;&lt;span style=&quot;background-color: initial;&quot;&gt;LastName&amp;nbsp; &amp;nbsp;:&amp;nbsp; &amp;nbsp;string&lt;/span&gt;&lt;/p&gt;&lt;p style=&quot;margin: 0px; margin-left: 8px;&quot;&gt;Email&amp;nbsp; :&amp;nbsp; &amp;nbsp;string&lt;/p&gt;&lt;p style=&quot;margin: 0px; margin-left: 8px;&quot;&gt;PhoneNumber&amp;nbsp; &amp;nbsp;:&amp;nbsp; &amp;nbsp; string&lt;/p&gt;&lt;p style=&quot;margin: 0px; margin-left: 8px;&quot;&gt;Address&amp;nbsp; &amp;nbsp;:&amp;nbsp; &amp;nbsp;string&lt;/p&gt;&lt;p style=&quot;margin: 0px; margin-left: 8px;&quot;&gt;Age&amp;nbsp; &amp;nbsp;:&amp;nbsp; &amp;nbsp; int&lt;/p&gt;&lt;p style=&quot;margin: 0px; margin-left: 8px;&quot;&gt;Gender&amp;nbsp; &amp;nbsp;:&amp;nbsp; &amp;nbsp; bool&lt;/p&gt;" style="verticalAlign=top;align=left;overflow=fill;fontSize=12;fontFamily=Helvetica;html=1;strokeColor=#003366;shadow=1;fillColor=#D4E1F5;fontColor=#003366" parent="1" vertex="1">
          <mxGeometry x="880" y="450" width="160" height="160" as="geometry" />
        </mxCell>
        <mxCell id="wNGtBNmK4PjKfD_GCCp5-114" value="&lt;p style=&quot;margin: 0px; margin-top: 4px; text-align: center; text-decoration: underline;&quot;&gt;&lt;b&gt;Invoice&lt;/b&gt;&lt;/p&gt;&lt;hr&gt;&lt;p style=&quot;margin: 0px; margin-left: 8px;&quot;&gt;Id&amp;nbsp; &amp;nbsp;:&amp;nbsp; &amp;nbsp; string&lt;/p&gt;&lt;p style=&quot;margin: 0px; margin-left: 8px;&quot;&gt;CreateAt&amp;nbsp; &amp;nbsp; :&amp;nbsp; &amp;nbsp; Datetime&lt;/p&gt;&lt;p style=&quot;margin: 0px; margin-left: 8px;&quot;&gt;CustomerId&amp;nbsp; &amp;nbsp; :&amp;nbsp; &amp;nbsp; int&lt;/p&gt;&lt;p style=&quot;margin: 0px; margin-left: 8px;&quot;&gt;Quantity&amp;nbsp; &amp;nbsp; :&amp;nbsp; &amp;nbsp; int&lt;/p&gt;&lt;p style=&quot;margin: 0px; margin-left: 8px;&quot;&gt;ProductId&amp;nbsp; &amp;nbsp; :&amp;nbsp; &amp;nbsp; string&lt;/p&gt;&lt;p style=&quot;margin: 0px; margin-left: 8px;&quot;&gt;Price&amp;nbsp; &amp;nbsp;:&amp;nbsp; &amp;nbsp; string&lt;/p&gt;&lt;p style=&quot;margin: 0px; margin-left: 8px;&quot;&gt;&lt;br&gt;&lt;/p&gt;" style="verticalAlign=top;align=left;overflow=fill;fontSize=12;fontFamily=Helvetica;html=1;strokeColor=#003366;shadow=1;fillColor=#D4E1F5;fontColor=#003366" vertex="1" parent="1">
          <mxGeometry x="1190" y="440" width="160.0000000000001" height="180" as="geometry" />
        </mxCell>
        <mxCell id="wNGtBNmK4PjKfD_GCCp5-127" value="" style="rounded=0;orthogonalLoop=1;jettySize=auto;html=1;exitX=-0.009;exitY=0.548;exitDx=0;exitDy=0;entryX=0;entryY=0.25;entryDx=0;entryDy=0;exitPerimeter=0;" edge="1" parent="1" source="wNGtBNmK4PjKfD_GCCp5-114" target="wNGtBNmK4PjKfD_GCCp5-124">
          <mxGeometry relative="1" as="geometry">
            <mxPoint x="1120" y="250" as="targetPoint" />
            <Array as="points">
              <mxPoint x="1140" y="540" />
              <mxPoint x="1140" y="218" />
            </Array>
          </mxGeometry>
        </mxCell>
        <mxCell id="wNGtBNmK4PjKfD_GCCp5-133" value="" style="edgeStyle=orthogonalEdgeStyle;rounded=0;orthogonalLoop=1;jettySize=auto;html=1;entryX=1;entryY=0.25;entryDx=0;entryDy=0;exitX=0.011;exitY=0.308;exitDx=0;exitDy=0;exitPerimeter=0;" edge="1" parent="1" source="wNGtBNmK4PjKfD_GCCp5-128" target="wNGtBNmK4PjKfD_GCCp5-124">
          <mxGeometry relative="1" as="geometry">
            <mxPoint x="1510" y="340" as="sourcePoint" />
            <mxPoint x="1450" y="255" as="targetPoint" />
            <Array as="points">
              <mxPoint x="1420" y="485" />
              <mxPoint x="1420" y="483" />
              <mxPoint x="1380" y="483" />
              <mxPoint x="1380" y="218" />
            </Array>
          </mxGeometry>
        </mxCell>
        <mxCell id="wNGtBNmK4PjKfD_GCCp5-124" value="&lt;p style=&quot;margin: 0px; margin-top: 4px; text-align: center; text-decoration: underline;&quot;&gt;&lt;b&gt;Product&lt;/b&gt;&lt;/p&gt;&lt;hr&gt;&lt;p style=&quot;margin: 0px; margin-left: 8px;&quot;&gt;ProductId&amp;nbsp; &amp;nbsp;:&amp;nbsp; &amp;nbsp; string&lt;/p&gt;&lt;p style=&quot;margin: 0px; margin-left: 8px;&quot;&gt;Name&amp;nbsp; &amp;nbsp; :&amp;nbsp; &amp;nbsp; &amp;nbsp;string&lt;/p&gt;&lt;p style=&quot;margin: 0px; margin-left: 8px;&quot;&gt;CustomerId&amp;nbsp; &amp;nbsp; :&amp;nbsp; &amp;nbsp; string&lt;/p&gt;&lt;p style=&quot;margin: 0px; margin-left: 8px;&quot;&gt;Quantity&amp;nbsp; &amp;nbsp; :&amp;nbsp; &amp;nbsp; &amp;nbsp;int&lt;/p&gt;&lt;p style=&quot;margin: 0px; margin-left: 8px;&quot;&gt;BrandId&amp;nbsp; &amp;nbsp; &amp;nbsp;:&amp;nbsp; &amp;nbsp; &amp;nbsp;int&lt;/p&gt;" style="verticalAlign=top;align=left;overflow=fill;fontSize=12;fontFamily=Helvetica;html=1;strokeColor=#6c8ebf;shadow=1;fillColor=#dae8fc;" vertex="1" parent="1">
          <mxGeometry x="1180" y="180" width="160" height="150" as="geometry" />
        </mxCell>
        <mxCell id="wNGtBNmK4PjKfD_GCCp5-128" value="&lt;p style=&quot;margin: 0px; margin-top: 4px; text-align: center; text-decoration: underline;&quot;&gt;&lt;b&gt;Inventory&lt;/b&gt;&lt;/p&gt;&lt;hr&gt;&lt;p style=&quot;margin: 0px; margin-left: 8px;&quot;&gt;Id&lt;/p&gt;&lt;p style=&quot;margin: 0px; margin-left: 8px;&quot;&gt;ProductId&lt;/p&gt;&lt;p style=&quot;margin: 0px; margin-left: 8px;&quot;&gt;Name&lt;/p&gt;" style="verticalAlign=top;align=left;overflow=fill;fontSize=12;fontFamily=Helvetica;html=1;strokeColor=#003366;shadow=1;fillColor=#D4E1F5;fontColor=#003366" vertex="1" parent="1">
          <mxGeometry x="1460" y="430" width="160.0000000000001" height="180" as="geometry" />
        </mxCell>
        <mxCell id="wNGtBNmK4PjKfD_GCCp5-129" value="&lt;p style=&quot;margin: 0px; margin-top: 4px; text-align: center; text-decoration: underline;&quot;&gt;&lt;b&gt;Brand&lt;/b&gt;&lt;/p&gt;&lt;hr&gt;&lt;p style=&quot;margin: 0px; margin-left: 8px;&quot;&gt;Id&amp;nbsp; &amp;nbsp;:&amp;nbsp; &amp;nbsp; int&lt;/p&gt;&lt;p style=&quot;margin: 0px; margin-left: 8px;&quot;&gt;Name&amp;nbsp; &amp;nbsp; :&amp;nbsp; &amp;nbsp; string&lt;/p&gt;&lt;p style=&quot;margin: 0px; margin-left: 8px;&quot;&gt;&lt;br&gt;&lt;/p&gt;" style="verticalAlign=top;align=left;overflow=fill;fontSize=12;fontFamily=Helvetica;html=1;strokeColor=#003366;shadow=1;fillColor=#D4E1F5;fontColor=#003366" vertex="1" parent="1">
          <mxGeometry x="1420" y="100" width="160" height="70" as="geometry" />
        </mxCell>
        <mxCell id="wNGtBNmK4PjKfD_GCCp5-135" value="" style="endArrow=classic;html=1;rounded=0;exitX=1.021;exitY=0.633;exitDx=0;exitDy=0;exitPerimeter=0;entryX=0;entryY=0.5;entryDx=0;entryDy=0;" edge="1" parent="1" source="wNGtBNmK4PjKfD_GCCp5-124" target="wNGtBNmK4PjKfD_GCCp5-129">
          <mxGeometry width="50" height="50" relative="1" as="geometry">
            <mxPoint x="1240" y="390" as="sourcePoint" />
            <mxPoint x="1290" y="340" as="targetPoint" />
            <Array as="points">
              <mxPoint x="1370" y="275" />
              <mxPoint x="1370" y="135" />
            </Array>
          </mxGeometry>
        </mxCell>
      </root>
    </mxGraphModel>
  </diagram>
</mxfile>
